<?xml version="1.0" encoding="UTF-8"?>
<svg id="Capa_2" data-name="Capa 2" xmlns="http://www.w3.org/2000/svg" viewBox="0 0 30.8 25.8">
  <path d="m18.45,24.21c-.92.14-5.54.34,1.16-4.96.91-.72,2.97-2.43,4.09-2.93.72-.32,1.16-.97.67-1.45-.76-.75-2.23-.07-2.85.4-.26.2-15.49,10.78-19.09,8.52C-.38,22.03,11.76,7.84,12.19,7.4c4.36-5.01,5.86-5.77,7.09-5.13s.5,2.49-.45,4c-.11.18-.59,1.07.12,1.35,1.65.67,2.96-2.5,3-4.34.06-2.54-3.23-4.44-6.74-2.45C9.21,4.21,1.92,15.48.22,21.28c-.85,2.89.2,7.23,13.94,1.52-.36.74-.41,1.58-.04,2.08.64.87,1.87,1.9,8.78-.95,4.09-1.61,7.9-3.94,7.9-3.94,0,0-10.98,4-12.35,4.22Z"/>
</svg> 